<?xml version="1.0" encoding="utf-8"?>
<!-- Generator: Adobe Illustrator 16.0.0, SVG Export Plug-In . SVG Version: 6.00 Build 0)  -->
<!DOCTYPE svg PUBLIC "-//W3C//DTD SVG 1.1//EN" "http://www.w3.org/Graphics/SVG/1.1/DTD/svg11.dtd">
<svg version="1.1" xmlns="http://www.w3.org/2000/svg" xmlns:xlink="http://www.w3.org/1999/xlink" x="0px" y="0px" width="512px"
	 height="512px" viewBox="0 0 512 512" enable-background="new 0 0 512 512" xml:space="preserve">
<g id="Layer_2">
	<g>
		<path fill="#444444" d="M256.046,1.524c24.23-5.305,48.598,4.575,65.218,9.312c9.902,2.826,19.84,48.968,18.623,88.718
			l-36.703-14.281c0,0,1.425-54.91-8.698-56.948c-9.137-1.83-16.527-2.919-20.812-3.22c-8.93-0.648-8.361,10.632-8.803,21.172
			c-0.729,16.863-1.019,25.619-1.019,25.619l-28.318-7.413C235.535,64.483,239.867,5.068,256.046,1.524z M275.747,511.011
			l-1.101,0.07c-14.951,1.065-52.627,3.462-86.366-8.872c-58.164-21.229-118.413-50.219-121.552-64.048
			c-2.339-10.285-35.302-59.01-19.423-172.118c0.266-1.911,0.556-9.949,0.88-11.953c4.366,5.038,10.447,9.52,18.867,12.751
			c7.019,2.688,26.06,9.011,48.459,16.075c-3.498,20.037,0.475,42.796,0.475,42.796s-0.406,11.223,15.149,14.662
			c18.229,4.042,22.862-7.007,22.862-7.007s-3.046-24.345,0.544-38.521c23.535,6.949,45.621,13.007,57.504,15.184
			c28.457,5.224,70.696-0.683,75.734-26.256C284.607,353.439,278.133,467.277,275.747,511.011z M299.096,179.908
			c-5.883,13.481-12.785,35.07-19.793,70.441c-7.064,35.858-44.335,34.236-59.171,32.87c-7.529-0.672-33.727-7.679-60.852-15.577
			c0.66-2.294,1.541-4.158,2.201-5.641c10.771-24.207,21.855-42.17,21.855-42.17s-0.799-7.806-17.905-11.408
			c-17.107-3.59-20.512,5.339-20.512,5.339s-14.755,18.38-23.453,42.47c-11.628-3.659-21.461-6.902-27.426-9.103
			c-23.905-8.837-35.557-20.303-35.406-29.441c11.512-35.974,29.858-73.406,50.752-94.277
			c39.98-39.958,100.449-41.451,100.449-41.451c26.384-3.729,114.672,31.167,117.093,32.093
			c10.701,4.123,20.743,12.474,29.545,22.26c-1.065-0.162-2.026-0.255-2.814-0.255c-14.986-0.046-28.398,9.126-37.873,18.601
			c-0.045,0-0.068,0.023-0.08,0.081l-0.012,0.012c-7.101,7.111-11.976,14.385-13.574,18.021
			C301.332,174.534,300.277,176.966,299.096,179.908z M373.556,448.956c-2.025,10.446-6.404,22.724-14.5,35.394
			c-3.821,5.999-35.001,14.131-56.751,19.805c0.834-25.422,9.463-281.81,18.589-304.047c8.791-21.484,39.969-55.593,50.694-28.399
			c6.381,16.157,13.84,47.231,16.168,76.186c0,0.012,0,0.012,0,0.012c2.606,32.533,2.675,65.449,2.525,80.437
			c-0.035,5.328-0.128,8.397-0.128,8.397l0.324-1.17c1.146,44.613,2.42,99.916,2.42,99.916S374.9,441.983,373.556,448.956z
			 M442.167,421.298c-13.573,5.722-26.719,9.162-26.719,9.162l-1.609-38.487c0,0,35.405-0.51,28.931-91.022
			c-5.86-81.872-6.509-95.469-6.671-105.221c-2.027-115.055-55.755-66.77-55.755-66.77l-21.021-22.92
			c79.312-63.539,102.569,19.399,105.106,45.192c1.042,10.678,5.651,65.623,5.651,65.623s9.717,93.164,9.717,112.808
			C479.797,379.325,461.382,413.214,442.167,421.298z"/>
		<path fill="#444444" d="M390.281,328.342c-0.395-15.079-0.765-28.445-1.055-37.271
			C389.517,299.896,389.887,313.263,390.281,328.342z"/>
	</g>
</g>
</svg>
