<?xml version="1.0" encoding="utf-8"?>
<!-- Generator: Adobe Illustrator 16.0.0, SVG Export Plug-In . SVG Version: 6.00 Build 0)  -->
<!DOCTYPE svg PUBLIC "-//W3C//DTD SVG 1.1//EN" "http://www.w3.org/Graphics/SVG/1.1/DTD/svg11.dtd">
<svg version="1.1" xmlns="http://www.w3.org/2000/svg" xmlns:xlink="http://www.w3.org/1999/xlink" x="0px" y="0px" width="512px"
	 height="512px" viewBox="0 0 512 512" enable-background="new 0 0 512 512" xml:space="preserve">
<g id="Layer_2">
	<g>
		<path fill="#444444" d="M497.371,186.4c-8.085,0-14.628,6.55-14.628,14.628v89.601H29.257v-192C29.257,90.55,22.714,84,14.628,84
			C6.543,84,0,90.55,0,98.628v314.157c0,8.072,6.543,14.629,14.628,14.629c8.086,0,14.629-6.557,14.629-14.629v-92.899h453.486
			v92.899c0,8.072,6.543,14.629,14.628,14.629c8.086,0,14.629-6.557,14.629-14.629V201.028C512,192.95,505.457,186.4,497.371,186.4z
			"/>
		<path fill="#444444" d="M109.114,268.078c25.586,0,46.314-20.742,46.314-46.321c0-25.585-20.729-46.328-46.314-46.328
			c-25.585,0-46.329,20.743-46.329,46.328C62.786,247.336,83.529,268.078,109.114,268.078z"/>
		<path fill="#444444" d="M444.343,204.686c0-8.078-6.543-14.629-14.629-14.629L181.029,160.8c-8.086,0-14.629,6.55-14.629,14.629
			V263.2h277.943V204.686z"/>
	</g>
</g>
</svg>
